<?xml version="1.0" encoding="UTF-8"?>
<svg version="1.1" xmlns="http://www.w3.org/2000/svg" width="1536" height="1024">
<path d="M0 0 C1.08667969 0.26490234 1.08667969 0.26490234 2.1953125 0.53515625 C20.28919285 4.97638143 35.96883499 12.94016899 50.39355469 24.69775391 C51.88552294 25.90720051 53.41420462 27.07096928 54.9453125 28.23046875 C55.62335938 28.81441406 56.30140625 29.39835937 57 30 C57 30.66 57 31.32 57 32 C57.57105469 32.2371875 58.14210938 32.474375 58.73046875 32.71875 C67.87972201 37.88390503 75.92785346 50.41847874 80 60 C80 60.66 80 61.32 80 62 C80.66 62 81.32 62 82 62 C83.25664978 64.90600261 84 66.79604584 84 70 C84.66 70 85.32 70 86 70 C95.55030946 95.93611961 101.11310797 122.39024861 95 150 C94.65879853 151.5911339 94.31765778 153.18228083 93.9765625 154.7734375 C93.01773676 159.19027427 92.01809968 163.59647175 91 168 C90.34 168 89.68 168 89 168 C88.75636719 169.29035156 88.51273438 170.58070313 88.26171875 171.91015625 C87.10185514 177.10768705 85.13600005 181.6641699 82.8125 186.4375 C82.4117627 187.27152344 82.01102539 188.10554687 81.59814453 188.96484375 C79.02428988 194.20882936 76.23284767 199.05023342 72.6953125 203.71484375 C70.06383856 207.2618766 67.84977665 211.06333937 65.578125 214.84765625 C64 217 64 217 61 218 C60.71125 218.7425 60.4225 219.485 60.125 220.25 C58.71624346 223.69362709 56.68124324 225.44643501 54 228 C53.401875 228.78375 52.80375 229.5675 52.1875 230.375 C41.28757757 243.45490692 24.89625296 253.99229925 10 262 C9.07477539 262.49959229 9.07477539 262.49959229 8.13085938 263.00927734 C-6.23980247 270.60530432 -21.88558393 275.40353273 -37.421875 280.01586914 C-43.72606581 281.89061801 -49.65116951 283.92356184 -55.5 286.9375 C-56.16257812 287.25912109 -56.82515625 287.58074219 -57.5078125 287.91210938 C-61.77103445 290.06495154 -64.62839137 292.57005904 -68 296 C-72.58186693 297.02697017 -74.5978541 296.82430438 -78.64453125 294.4453125 C-81.51053222 292.38499851 -84.25652157 290.22035754 -87 288 C-88.72906563 286.70819808 -90.45822339 285.41651948 -92.1875 284.125 C-94.41796875 282.4453125 -94.41796875 282.4453125 -96 281 C-96 280.34 -96 279.68 -96 279 C-97.65 278.34 -99.3 277.68 -101 277 C-101 276.34 -101 275.68 -101 275 C-101.58136719 274.73445313 -102.16273438 274.46890625 -102.76171875 274.1953125 C-109.72886972 270.47463502 -115.0264541 263.99343759 -120 258 C-120.804375 257.05125 -121.60875 256.1025 -122.4375 255.125 C-124 253 -124 253 -124 251 C-124.99 250.67 -125.98 250.34 -127 250 C-127.70151152 248.6846659 -128.36525925 247.34882408 -129 246 C-129.42023438 245.60296875 -129.84046875 245.2059375 -130.2734375 244.796875 C-132.78966077 242.1781811 -134.66558126 239.1652594 -136.625 236.125 C-137.03234375 235.51269531 -137.4396875 234.90039062 -137.859375 234.26953125 C-140.05204632 230.87887726 -141.55470463 228.03836832 -142 224 C-142.66 224 -143.32 224 -144 224 C-144.21914063 223.41734375 -144.43828125 222.8346875 -144.6640625 222.234375 C-146.5471374 217.36593746 -148.62066995 212.74072862 -151.0625 208.125 C-153.64907334 203.07564398 -155.18376923 198.23031803 -156.359375 192.69140625 C-156.9260112 189.98877248 -156.9260112 189.98877248 -158.0390625 187.515625 C-159.12321418 184.6774393 -159.40638945 182.21161262 -159.625 179.1875 C-159.69976562 178.21167969 -159.77453125 177.23585938 -159.8515625 176.23046875 C-159.90054687 175.49441406 -159.94953125 174.75835938 -160 174 C-160.66 174 -161.32 174 -162 174 C-163.77740619 163.25661203 -164.31525343 152.79701168 -164.26074219 141.91992188 C-164.2499825 139.37085359 -164.26072648 136.82248515 -164.2734375 134.2734375 C-164.28398283 122.82370185 -163.77682279 111.92180359 -160 101 C-159.59901675 99.38121576 -159.22105643 97.75640888 -158.875 96.125 C-158.70742188 95.34382813 -158.53984375 94.56265625 -158.3671875 93.7578125 C-158.24601562 93.17773438 -158.12484375 92.59765625 -158 92 C-157.34 92 -156.68 92 -156 92 C-155.90203125 91.29875 -155.8040625 90.5975 -155.703125 89.875 C-154.8212555 84.27969005 -153.68296027 79.60889527 -150.90234375 74.65625 C-149.84725864 72.83540255 -149.84725864 72.83540255 -149 70 C-148.34 70 -147.68 70 -147 70 C-146.01 67.03 -145.02 64.06 -144 61 C-143.34 61 -142.68 61 -142 61 C-141.773125 60.154375 -141.54625 59.30875 -141.3125 58.4375 C-139.80761382 54.49613144 -137.87296745 51.11238141 -135 48 C-134.34 48 -133.68 48 -133 48 C-132.773125 47.29875 -132.54625 46.5975 -132.3125 45.875 C-129.62137795 39.98016123 -125.11337525 36.06691021 -120.26171875 31.9453125 C-116.79284512 28.96172171 -113.45639528 25.83340677 -110.1015625 22.72265625 C-108 21 -108 21 -106 21 C-106 20.34 -106 19.68 -106 19 C-75.74363627 -3.89040769 -36.2499103 -9.43747665 0 0 Z M-80 18 C-80.89847656 18.36609375 -81.79695313 18.7321875 -82.72265625 19.109375 C-94.89925709 24.57399587 -104.90888668 34.46978103 -114 44 C-114.82886719 44.81597656 -115.65773438 45.63195312 -116.51171875 46.47265625 C-118.91030585 48.90889778 -121.09899474 51.4065832 -123.25 54.0625 C-123.93578125 54.89910156 -124.6215625 55.73570312 -125.328125 56.59765625 C-126.8894486 58.84114694 -127.58118664 60.33314433 -128 63 C-128.66 63 -129.32 63 -130 63 C-130.88776057 64.77552114 -131.77491683 66.55134552 -132.66015625 68.328125 C-133.65989676 70.32177662 -134.66927578 72.31060036 -135.68359375 74.296875 C-152.60670795 107.52721602 -152.66364244 138.67072154 -148 175 C-147.34 175 -146.68 175 -146 175 C-145.84724609 176.91619141 -145.84724609 176.91619141 -145.69140625 178.87109375 C-145.10165905 184.17881855 -143.62574172 189.01344296 -141.9375 194.0625 C-141.51500977 195.3609082 -141.51500977 195.3609082 -141.08398438 196.68554688 C-140.39701565 198.79302719 -139.70229934 200.8975895 -139 203 C-138.34 203 -137.68 203 -137 203 C-136.91492188 203.66128906 -136.82984375 204.32257813 -136.7421875 205.00390625 C-135.75945637 208.97103666 -133.9982843 212.32185987 -132.125 215.9375 C-131.77308594 216.62779297 -131.42117188 217.31808594 -131.05859375 218.02929688 C-130.36851222 219.38252367 -129.676198 220.73461467 -128.98144531 222.08544922 C-127.63418076 224.71362051 -126.31580809 227.35597054 -125 230 C-124.34 230 -123.68 230 -123 230 C-122.34 231.98 -121.68 233.96 -121 236 C-120.34 236 -119.68 236 -119 236 C-118.76925781 236.70125 -118.53851563 237.4025 -118.30078125 238.125 C-116.75108199 241.55016114 -114.61845493 244.17880341 -112.1875 247 C-111.76146484 247.50789062 -111.33542969 248.01578125 -110.89648438 248.5390625 C-108.08459401 251.85717821 -105.19596739 255.04820669 -102 258 C-101.34 258 -100.68 258 -100 258 C-99.7525 258.61875 -99.505 259.2375 -99.25 259.875 C-97.77229238 262.38710296 -96.56044823 262.76107344 -94 264 C-93.505 265.485 -93.505 265.485 -93 267 C-92.34 267 -91.68 267 -91 267 C-90.67 267.66 -90.34 268.32 -90 269 C-88.67293045 267.87757732 -88.67293045 267.87757732 -88.625 265 C-88.13339011 261.10741679 -86.94550308 257.59969995 -85.62109375 253.91796875 C-84.89730726 252.01888402 -84.89730726 252.01888402 -85 250 C-84.34 250 -83.68 250 -83 250 C-80.7986134 246.19572508 -80.7986134 246.19572508 -80 242 C-79.34 242 -78.68 242 -78 242 C-77.731875 241.195625 -77.46375 240.39125 -77.1875 239.5625 C-76.795625 238.716875 -76.40375 237.87125 -76 237 C-75.01 236.67 -74.02 236.34 -73 236 C-71.33052514 234.33614627 -69.6642389 232.66909091 -68 231 C-59.37948811 224.66068206 -50.31599668 220.73475245 -40 218 C-39.02474365 217.73775635 -39.02474365 217.73775635 -38.02978516 217.47021484 C-27.60053119 214.76727241 -17.05784289 213.50914034 -6.36843872 212.36608887 C18.43258241 209.70087228 45.19295882 204.78087144 62.6875 185.125 C65.198281 182.37998276 65.198281 182.37998276 65 180 C65.99 179.67 66.98 179.34 68 179 C70.30052148 175.85288662 72.11327685 172.40795543 74 169 C74.40992188 168.27554688 74.81984375 167.55109375 75.2421875 166.8046875 C77.55730555 162.49552617 78.59349074 158.8781111 79 154 C79.66 154 80.32 154 81 154 C85.31694016 127.17629418 86.53010851 98.49661752 73 74 C71.91021348 71.83657195 70.82727417 69.66968567 69.75 67.5 C69.22921875 66.4584375 68.7084375 65.416875 68.171875 64.34375 C67.78515625 63.5703125 67.3984375 62.796875 67 62 C66.34 62 65.68 62 65 62 C64.01 59.03 64.01 59.03 63 56 C62.34 56 61.68 56 61 56 C60.773125 55.29488281 60.54625 54.58976562 60.3125 53.86328125 C58.70705085 50.36091748 56.60671731 48.01775847 54 45.1875 C53.113125 44.21167969 52.22625 43.23585938 51.3125 42.23046875 C49.29556211 39.76859148 49.29556211 39.76859148 47 40 C46.80921875 39.44957031 46.6184375 38.89914062 46.421875 38.33203125 C44.36579859 34.95983999 41.40493891 32.95817175 38.25 30.6875 C37.58548828 30.20474609 36.92097656 29.72199219 36.23632812 29.22460938 C1.81044026 4.83010605 -41.78420921 1.81047882 -80 18 Z M44.875 211.1875 C40.27835284 213.5528301 35.69205672 215.17773933 30.75 216.625 C30.09628418 216.81860107 29.44256836 217.01220215 28.76904297 217.21166992 C16.00455392 220.83394213 3.10668443 222.75116228 -10.04101562 224.22949219 C-29.99242195 226.4962627 -53.33233701 229.53076439 -66.73046875 246.2890625 C-71.55165033 252.52086541 -71.55165033 252.52086541 -73 260 C-73.66 260 -74.32 260 -75 260 C-76.1592085 263.4776255 -76.42669761 266.81060816 -76.6875 270.4375 C-76.74744141 271.10587891 -76.80738281 271.77425781 -76.86914062 272.46289062 C-77.14087704 276.21880902 -77.12327178 278.81915991 -75 282 C-71.71045713 281.42045275 -69.05394467 280.04305483 -66.12915039 278.47387695 C-52.57971235 271.24171745 -37.94370096 266.60534477 -23.1875 262.5 C-6.54419587 257.7936059 7.70144719 249.53236854 22 240 C22 239.34 22 238.68 22 238 C23.32 237.67 24.64 237.34 26 237 C26 236.34 26 235.68 26 235 C26.66 235 27.32 235 28 235 C28 234.34 28 233.68 28 233 C28.556875 232.7525 29.11375 232.505 29.6875 232.25 C34.95193768 229.40435801 38.47959604 225.38056293 42.296875 220.8828125 C44 219 44 219 46.75 216.875 C49.49530973 214.58724189 50.59630229 212.25066839 52 209 C48.67397538 209 47.70680497 209.5841261 44.875 211.1875 Z " fill="#477B5B" transform="translate(463,380)"/>
<path d="M0 0 C1.25484282 1.04999126 2.50312143 2.1078581 3.74609375 3.171875 C8.52003311 6.86690976 12.5543772 6.5506052 18.375 6.125 C26.08338105 5.8388358 32.22312664 5.86879536 39 10 C40.11375 10.66 41.2275 11.32 42.375 12 C44.82203325 13.86440628 46.9850141 15.67501627 49 18 C49 18.66 49 19.32 49 20 C49.99 20.33 50.98 20.66 52 21 C53.10546875 22.70703125 53.10546875 22.70703125 54.1875 24.8125 C56.56941675 28.8445398 58.78199001 30.26197029 63.01171875 32.078125 C71.65417283 36.08523534 76.46544843 44.56225471 80 53 C80.8125 56.5625 80.8125 56.5625 81 60 C81.03867187 60.67417969 81.07734375 61.34835937 81.1171875 62.04296875 C81.25241937 66.28774702 80.8143726 69.93750604 79.8125 74.0625 C78.80228239 78.99595999 79.37998993 83.14286478 80.4375 88 C82.44447381 97.24055511 82.79046975 105.53683678 78 114 C74.43507036 119.28628138 71.39512133 122.04037355 65.3125 124.0625 C62.40062386 125.05519114 62.40062386 125.05519114 60 127 C57.85223494 131.9061692 56.82896628 136.72777445 56 142 C55.34 142 54.68 142 54 142 C53.938125 142.556875 53.87625 143.11375 53.8125 143.6875 C51.8728336 149.20808899 45.96877693 153.20336599 41 156 C33.72796389 159.2151122 27.82569292 160.79606067 20 159 C18.5216774 156.04335481 18.93967217 153.25770263 19 150 C20.11375 149.5875 21.2275 149.175 22.375 148.75 C23.10074219 148.47414063 23.82648438 148.19828125 24.57421875 147.9140625 C26.2371027 147.28746855 27.90687998 146.67895625 29.58203125 146.0859375 C34.80796653 144.15853108 38.36804794 142.40236613 42 138 C42.5775 137.360625 43.155 136.72125 43.75 136.0625 C45.34189396 133.43587496 45.5569798 131.01499856 46 128 C28.55784648 125.07118262 14.93936025 126.48347791 -2 131 C-1.06558465 132.27310312 -0.12732889 133.543388 0.8125 134.8125 C1.33457031 135.52019531 1.85664063 136.22789062 2.39453125 136.95703125 C3.9264149 138.99308383 3.9264149 138.99308383 5.61474609 140.59960938 C7.61572352 142.62245156 8.48856717 144.90642324 9.625 147.5 C10.05039062 148.4590625 10.47578125 149.418125 10.9140625 150.40625 C12.52912144 154.26380085 13.20609824 157.33353113 13.3125 161.5 C13.36857422 162.93859375 13.36857422 162.93859375 13.42578125 164.40625 C13 167 13 167 11.17578125 168.85546875 C8.11412406 170.46599937 6.26445919 169.92256455 3 169 C0.41073669 166.41073669 0.62601957 164.97294721 0.375 161.375 C0.26285156 159.87066406 0.26285156 159.87066406 0.1484375 158.3359375 C0.09945312 157.56507813 0.05046875 156.79421875 0 156 C-0.66 156 -1.32 156 -2 156 C-2.38091797 155.22076172 -2.38091797 155.22076172 -2.76953125 154.42578125 C-3.83067804 152.27566735 -4.91492588 150.13811654 -6 148 C-6.4125 147.154375 -6.825 146.30875 -7.25 145.4375 C-10.4958646 140.9164743 -14.51585975 136.81004573 -19.875 135.0625 C-21.64027246 135.02719455 -23.40707425 135.01244651 -25.171875 135.06640625 C-37.39229084 135.35829516 -47.24679853 132.3920677 -56.19140625 123.92578125 C-60.77881417 119.08492538 -63.74725354 114.26915626 -66 108 C-66.886875 108.165 -67.77375 108.33 -68.6875 108.5 C-82.53785207 110.37091449 -94.40555893 108.49986572 -105.7421875 99.98828125 C-111.43915988 94.97139727 -115.52047692 89.19061692 -118 82 C-118.433125 80.83597656 -118.433125 80.83597656 -118.875 79.6484375 C-121.55545235 71.53528263 -120.93809908 64.37507734 -120 56 C-119.34 56 -118.68 56 -118 56 C-117.9071875 54.5459375 -117.9071875 54.5459375 -117.8125 53.0625 C-116.65202555 45.29986685 -112.14870094 39.36996232 -106.1875 34.50390625 C-102.16863644 31.74093756 -97.69296524 29.43419186 -92.84375 28.65234375 C-90.8270185 28.16554357 -90.8270185 28.16554357 -89.953125 26.15234375 C-89.72109375 25.42144531 -89.4890625 24.69054687 -89.25 23.9375 C-89.00765625 23.20402344 -88.7653125 22.47054688 -88.515625 21.71484375 C-88.34546875 21.14894531 -88.1753125 20.58304687 -88 20 C-87.34 20 -86.68 20 -86 20 C-85.7525 19.278125 -85.505 18.55625 -85.25 17.8125 C-81.80695824 10.06565604 -75.49851331 6.35285948 -68 3 C-59.61802256 0.30366987 -51.264802 -0.51029171 -42.55078125 0.96875 C-39.22895758 1.00944616 -37.74427851 -0.19489373 -35 -2 C-22.61254135 -6.68871098 -11.78753093 -6.11415959 0 0 Z M-35 12 C-35 12.66 -35 13.32 -35 14 C-36.134375 13.835 -37.26875 13.67 -38.4375 13.5 C-53.94774846 11.55439075 -53.94774846 11.55439075 -68.20703125 16.44140625 C-71.18647425 19.03137958 -73.73741567 21.76381878 -76 25 C-76.54398437 25.74894531 -77.08796875 26.49789063 -77.6484375 27.26953125 C-79.37104607 30.74959886 -79.33144951 33.32272085 -79.25 37.1875 C-79.23453125 38.41855469 -79.2190625 39.64960938 -79.203125 40.91796875 C-79.20571079 43.9114324 -79.20571079 43.9114324 -78 46 C-77.34 46 -76.68 46 -76 46 C-77.24976756 49.65316671 -77.67098753 50.78065836 -81 53 C-83.73990408 52.96856707 -86.28417854 52.44521663 -89 52 C-89.99 46.555 -89.99 46.555 -91 41 C-97.51112158 42.62778039 -100.75323907 45.05568838 -104.375 50.625 C-108.66621022 58.90490693 -108.43681448 70.11039185 -106 79 C-105.34 79 -104.68 79 -104 79 C-103.87625 79.763125 -103.7525 80.52625 -103.625 81.3125 C-103.11897208 84.20267136 -103.11897208 84.20267136 -101 87 C-100.34 87 -99.68 87 -99 87 C-98.79375 87.5775 -98.5875 88.155 -98.375 88.75 C-95.19238528 93.95791499 -90.51960236 95.28378012 -84.875 96.75 C-81.37493516 97.58716564 -78.62844863 98 -75 98 C-75 97.34 -75 96.68 -75 96 C-75.721875 95.608125 -76.44375 95.21625 -77.1875 94.8125 C-82.81936857 91.18307359 -85.87927691 85.25055228 -88 79 C-88.1875 75.0625 -88.1875 75.0625 -88 72 C-79.42857143 70.71428571 -79.42857143 70.71428571 -76 72 C-75.896875 73.051875 -75.79375 74.10375 -75.6875 75.1875 C-74.74914716 80.39109303 -72.89909935 83.34842888 -69.0625 86.875 C-66.29310524 89.27525382 -66.29310524 89.27525382 -63.625 88.8125 C-63.08875 88.544375 -62.5525 88.27625 -62 88 C-61.505 86.02 -61.505 86.02 -61 84 C-60.34 84 -59.68 84 -59 84 C-56.67980703 80.80973467 -54.65356922 77.58273331 -53 74 C-53.804375 73.54625 -54.60875 73.0925 -55.4375 72.625 C-58 71 -58 71 -59 69 C-59.66 69 -60.32 69 -61 69 C-61.433125 67.4221875 -61.433125 67.4221875 -61.875 65.8125 C-62.84900363 62.17238752 -62.84900363 62.17238752 -64.125 59.5625 C-66.7046672 52.00776034 -64.32217336 45.86351789 -61 39 C-57.22553309 31.85547334 -51.54433325 28.67756581 -44.0625 26.1875 C-39.26087941 24.8624016 -34.96016429 24.75999205 -30 25 C-30 27.64 -30 30.28 -30 33 C-34.95504938 35.18022173 -39.92622833 36.97540944 -45.0625 38.6875 C-48.31166578 40.88854779 -50.39336926 43.4105829 -52 47 C-52.75942444 51.91516372 -52.68441238 56.3069799 -50.8125 60.9375 C-48.68404234 63.35953803 -46.7310106 65.26813962 -44 67 C-40.72257969 66.56622378 -38.08255003 65.09892813 -35.1875 63.5625 C-26.28497326 59.05275288 -17.30026491 56.95847663 -7.4375 59 C-0.83823934 60.34963723 4.93263417 60.52982083 10.9375 57.125 C14.90706576 54.02837116 15.20920818 50.00662534 15.80859375 45.23046875 C15.87175781 44.49441406 15.93492187 43.75835937 16 43 C19.3 42.34 22.6 41.68 26 41 C26 41.66 26 42.32 26 43 C26.66 43 27.32 43 28 43 C27.48914188 49.43681228 26.27057103 54.95942424 24 61 C23.34 61 22.68 61 22 61 C21.319375 61.7425 20.63875 62.485 19.9375 63.25 C14.74633085 68.53145035 8.92877737 70.24310544 1.625 70.3125 C-2.5529157 70.19062381 -6.66073841 69.84142537 -10.8125 69.375 C-21.69162314 68.34335901 -32.22307594 73.72109211 -40.83203125 80.09765625 C-44.42700404 83.20478136 -46.91598348 85.73142231 -49 90 C-49.99 90.495 -49.99 90.495 -51 91 C-52.93250394 96.42347881 -53.06825886 103.6731367 -51.31640625 109.12890625 C-47.85318551 115.55239036 -43.00665586 120.28297556 -36.04296875 122.46484375 C-22.55567191 125.99784503 -8.52771235 120.46926927 4.61132812 117.07006836 C16.73032395 113.9599626 27.243719 113.15701168 39.5 115.625 C47.9126394 117.26859335 54.59112123 117.16435867 62.4375 113.3125 C66.38705345 109.74826884 68.76210198 106.62838946 69.2421875 101.32421875 C69.24913424 98.8685449 69.17737227 96.44872269 69 94 C67.865625 93.525625 66.73125 93.05125 65.5625 92.5625 C62 91 62 91 61 90 C60.8386942 86.93518979 61.01849759 84.94450722 62 82 C62.66 82 63.32 82 64 82 C67.93306938 70.64604499 69.6178066 61.4751503 65 50 C60.90466086 43.50394481 55.10036009 40.77731499 47.953125 38.7109375 C46 38 46 38 44 36 C43.40165446 34.47943382 42.86493344 32.93387912 42.375 31.375 C42.11460937 30.55773437 41.85421875 29.74046875 41.5859375 28.8984375 C41.39257812 28.27195312 41.19921875 27.64546875 41 27 C40.34 27 39.68 27 39 27 C38.79375 26.4225 38.5875 25.845 38.375 25.25 C35.96889525 21.31273769 32.26807576 19.55133729 28.125 17.75 C19.57315682 15.69755764 14.29249262 17.60610988 6.75 21.8125 C3.62633073 24.29723692 2.41831148 26.29663113 1 30 C1 30.99 1 31.98 1 33 C0.34 33 -0.32 33 -1 33 C-1.03738281 33.84304688 -1.07476562 34.68609375 -1.11328125 35.5546875 C-1.17902344 36.65039062 -1.24476563 37.74609375 -1.3125 38.875 C-1.37050781 39.96554687 -1.42851562 41.05609375 -1.48828125 42.1796875 C-1.65714844 43.11039062 -1.82601562 44.04109375 -2 45 C-5 47 -5 47 -8.125 46.6875 C-11 46 -11 46 -12 45 C-12.78219391 33.77852586 -11.62751884 27.11283841 -5 18 C-3.25 16.125 -3.25 16.125 -2 15 C-2.9777968 12.54521539 -3.64262401 11.23355485 -5.8828125 9.76953125 C-16.78475021 5.11626515 -24.7594257 5.17295047 -35 12 Z " fill="#45795A" transform="translate(448,414)"/>
<path d="M0 0 C10.35463192 9.77580157 15.52617102 23.24610479 16.375 37.375 C15.47767028 52.92871512 9.99442149 65.87168364 -1.28125 76.671875 C-12.4755267 85.59039215 -26.15785792 88.18920016 -40.125 86.9375 C-47.92831202 85.17516876 -55.89973704 82.3239325 -61.125 75.9375 C-61.125 75.2775 -61.125 74.6175 -61.125 73.9375 C-61.785 73.9375 -62.445 73.9375 -63.125 73.9375 C-62.96423477 74.50293518 -62.80346954 75.06837036 -62.63783264 75.65093994 C-62.10993238 78.0046818 -61.96705782 80.11284531 -61.91967773 82.52246094 C-61.89973251 83.42309265 -61.87978729 84.32372437 -61.85923767 85.25164795 C-61.84252518 86.21532288 -61.82581268 87.1789978 -61.80859375 88.171875 C-61.78781265 89.16503723 -61.76703156 90.15819946 -61.74562073 91.18145752 C-61.68030251 94.35006882 -61.62132261 97.51876211 -61.5625 100.6875 C-61.51929793 102.83724802 -61.47568309 104.98698778 -61.43164062 107.13671875 C-61.32463929 112.40355949 -61.22284009 117.67048155 -61.125 122.9375 C-64.81160697 124.16636899 -68.22562975 124.08310987 -72.0625 124.0625 C-72.77857422 124.06636719 -73.49464844 124.07023438 -74.23242188 124.07421875 C-77.77066511 124.06766038 -80.66669009 123.80207748 -84.125 122.9375 C-84.125 79.3775 -84.125 35.8175 -84.125 -9.0625 C-81.80156444 -10.22421778 -80.42866684 -10.19153969 -77.84375 -10.1953125 C-77.00199219 -10.19660156 -76.16023437 -10.19789063 -75.29296875 -10.19921875 C-73.97232422 -10.19341797 -73.97232422 -10.19341797 -72.625 -10.1875 C-71.74457031 -10.19136719 -70.86414063 -10.19523437 -69.95703125 -10.19921875 C-68.69439453 -10.19728516 -68.69439453 -10.19728516 -67.40625 -10.1953125 C-66.63345703 -10.19418457 -65.86066406 -10.19305664 -65.06445312 -10.19189453 C-63.125 -10.0625 -63.125 -10.0625 -61.125 -9.0625 C-61.785 -5.4325 -62.445 -1.8025 -63.125 1.9375 C-62.465 2.2675 -61.805 2.5975 -61.125 2.9375 C-61.02058594 2.339375 -60.91617188 1.74125 -60.80859375 1.125 C-59.57874835 -2.81050529 -56.45277791 -4.82195639 -53.125 -7.0625 C-34.97388121 -16.13805939 -15.34187565 -12.77719463 0 0 Z M-56.125 15.9375 C-61.7007222 23.21691509 -63.42979616 32.875885 -62.88671875 41.89453125 C-61.37017212 51.07754676 -58.53730656 58.9635577 -50.83203125 64.62109375 C-43.22140855 68.89223812 -35.24426036 70.0380789 -26.8125 67.75 C-19.77974468 65.26850564 -14.56697763 61.70672266 -11.125 54.9375 C-6.99935193 44.31003945 -5.92332862 35.44122867 -9.875 24.6875 C-13.60861082 16.30348424 -17.55932271 11.64571808 -26.125 7.9375 C-37.11736859 4.51861371 -48.42563104 7.51443056 -56.125 15.9375 Z " fill="#467A5A" transform="translate(793.125,481.0625)"/>
<path d="M0 0 C2.3125 2.06640625 2.3125 2.06640625 4 4 C4 4.66 4 5.32 4 6 C4.66 6 5.32 6 6 6 C12.41280727 17.98510097 13.15386646 29.10157898 13.09765625 42.46875 C13.0962413 43.74480103 13.09482635 45.02085205 13.09336853 46.33557129 C13.08874011 49.70238156 13.07977971 53.06912207 13.06866455 56.43591309 C13.0583733 59.88174848 13.0538545 63.32759112 13.04882812 66.7734375 C13.03783326 73.51564403 13.0211208 80.25781799 13 87 C9.47637842 87.61436743 6.26910797 88.12632286 2.6953125 87.87890625 C1.94765625 87.83056641 1.2 87.78222656 0.4296875 87.73242188 C-0.33085938 87.67634766 -1.09140625 87.62027344 -1.875 87.5625 C-2.65875 87.51029297 -3.4425 87.45808594 -4.25 87.40429688 C-6.1670912 87.27571149 -8.08361503 87.13871383 -10 87 C-9.67 84.36 -9.34 81.72 -9 79 C-9.99 79 -10.98 79 -12 79 C-12.22429688 79.60585938 -12.44859375 80.21171875 -12.6796875 80.8359375 C-15.701264 85.78846229 -23.43416935 87.66750082 -28.8125 89.3125 C-40.29023549 91.72516685 -52.46337335 90.41032226 -62.63671875 84.45703125 C-68.55510079 80.18210075 -73.0680497 75.46225211 -74.58984375 68.17578125 C-75.55767478 59.68279213 -75.28258959 51.74236742 -70.1875 44.625 C-61.71011637 34.54925525 -49.72385267 32.1998045 -37 31 C-27.81829929 30.41784545 -19.79456884 31.29397882 -11 34 C-10.45112701 25.52821698 -10.45112701 25.52821698 -12.5 17.4375 C-17.14115455 12.91237431 -22.44604914 10.50593173 -28.91796875 9.95703125 C-34.10309805 10.06404142 -39.5843434 11.21019186 -44 14 C-45.25367732 15.89663761 -45.25367732 15.89663761 -46.125 18.0625 C-47.80555556 21.90277778 -47.80555556 21.90277778 -50 23 C-51.43634143 23.09505069 -52.87692475 23.13072867 -54.31640625 23.1328125 C-55.58581055 23.13474609 -55.58581055 23.13474609 -56.88085938 23.13671875 C-57.76580078 23.13285156 -58.65074219 23.12898438 -59.5625 23.125 C-60.45130859 23.12886719 -61.34011719 23.13273437 -62.25585938 23.13671875 C-63.10083984 23.13542969 -63.94582031 23.13414062 -64.81640625 23.1328125 C-65.98345093 23.13112061 -65.98345093 23.13112061 -67.17407227 23.12939453 C-69 23 -69 23 -70 22 C-70.46390316 14.82399802 -68.3463432 9.86732649 -64.01171875 4.2578125 C-47.97943577 -13.73570122 -18.91522831 -12.72422431 0 0 Z M-49 52 C-51.52077117 55.05145984 -52.84830366 57.08982194 -53.5 61 C-52.74421377 65.53471735 -51.02591508 68.51829236 -47.26953125 71.265625 C-40.32024606 75.20494036 -34.01410711 74.6226428 -26.4375 72.875 C-19.84199167 70.90467283 -15.00288616 67.81655866 -11 62.1875 C-9.69990088 58.04343406 -9.74171222 54.30479629 -10 50 C-22.27593946 45.04655074 -38.07096942 42.85011393 -49 52 Z " fill="#437858" transform="translate(678,478)"/>
<path d="M0 0 C3.60401481 -0.08701039 7.20776012 -0.14039388 10.8125 -0.1875 C12.34874023 -0.22520508 12.34874023 -0.22520508 13.91601562 -0.26367188 C15.39038086 -0.27817383 15.39038086 -0.27817383 16.89453125 -0.29296875 C18.25348511 -0.31653442 18.25348511 -0.31653442 19.63989258 -0.34057617 C22.4844793 0.06991296 23.28228638 0.74136539 25 3 C26.38671875 5.9609375 26.38671875 5.9609375 27.6875 9.375 C28.34298828 11.05722656 28.34298828 11.05722656 29.01171875 12.7734375 C29.92329817 15.74958215 30.21330789 17.92144829 30 21 C30.66 21 31.32 21 32 21 C32.31453125 21.82242187 32.6290625 22.64484375 32.953125 23.4921875 C34.97294141 28.76074476 36.99816844 34.02359997 39.125 39.25 C44 51.41768293 44 51.41768293 44 57 C44.66 57 45.32 57 46 57 C46.495 61.95 46.495 61.95 47 67 C49.37782295 66.1042949 49.37782295 66.1042949 50.0703125 62.83984375 C50.42991937 61.54126339 50.78114216 60.24033915 51.125 58.9375 C51.30675781 58.27427734 51.48851562 57.61105469 51.67578125 56.92773438 C52.12430404 55.28708521 52.56307386 53.64377551 53 52 C53.66 52 54.32 52 55 52 C55.144375 50.9275 55.28875 49.855 55.4375 48.75 C55.83749442 46.08337051 56.27591924 43.58600271 57 41 C57.66 41 58.32 41 59 41 C59.10570312 40.17242187 59.21140625 39.34484375 59.3203125 38.4921875 C60.10012474 34.48556599 61.39472235 30.91595496 62.875 27.125 C63.13152344 26.45597656 63.38804688 25.78695313 63.65234375 25.09765625 C64.17096805 23.74506323 64.69164293 22.3932547 65.21435547 21.04223633 C66.00904357 18.97649177 66.78795162 16.90540382 67.5625 14.83203125 C68.72253982 11.73099487 69.90525582 8.6406733 71.125 5.5625 C71.45757813 4.71816406 71.79015625 3.87382812 72.1328125 3.00390625 C73 1 73 1 74 0 C75.78071246 -0.08726223 77.5648314 -0.10699041 79.34765625 -0.09765625 C80.42724609 -0.09443359 81.50683594 -0.09121094 82.61914062 -0.08789062 C84.32360352 -0.07532227 84.32360352 -0.07532227 86.0625 -0.0625 C87.77276367 -0.05573242 87.77276367 -0.05573242 89.51757812 -0.04882812 C92.34510351 -0.03699747 95.1725264 -0.0205141 98 0 C97.51421457 3.12290635 97.0013988 5.99580359 96 9 C95.34 9 94.68 9 94 9 C93.9071875 10.3921875 93.9071875 10.3921875 93.8125 11.8125 C93.18306714 16.41581497 91.17251266 20.30533008 89.15625 24.44921875 C88.15687056 26.65393083 87.48658899 28.63893753 87 31 C86.34 31 85.68 31 85 31 C84.62875 32.918125 84.62875 32.918125 84.25 34.875 C83.06185295 40.18865764 81.10058815 44.9914315 79 50 C78.27522376 51.81293892 77.55064031 53.62595896 76.83032227 55.44067383 C74.7055011 60.79360167 72.54148 66.12688802 70.3125 71.4375 C68.02354962 76.89859705 65.87318811 82.38043567 64 88 C63.34 88 62.68 88 62 88 C61.9175 88.99 61.835 89.98 61.75 91 C61.23395935 94.60511733 59.87972821 97.38232591 58.1640625 100.59765625 C55.92087958 105.22704383 54.39451615 110.15027677 52.70166016 115.00146484 C51.43286015 118.61538163 50.13109255 122.2164855 48.8125 125.8125 C48.56258301 126.51246094 48.31266602 127.21242188 48.05517578 127.93359375 C46.22904542 132.88547729 46.22904542 132.88547729 44 134 C40.5052764 134.2391169 37.00200511 134.18518692 33.5 134.1875 C32.52417969 134.19974609 31.54835938 134.21199219 30.54296875 134.22460938 C29.61097656 134.22654297 28.67898438 134.22847656 27.71875 134.23046875 C26.43387695 134.23663208 26.43387695 134.23663208 25.12304688 134.24291992 C23 134 23 134 21 132 C21.31453125 131.34515625 21.6290625 130.6903125 21.953125 130.015625 C24.73953441 124.07352299 26.98009206 118.1637394 28.95703125 111.91015625 C29.98142324 109.05183404 31.23402353 106.53623629 32.6875 103.875 C35.27471682 98.98627129 35.87166976 94.48320105 36 89 C35.34 89 34.68 89 34 89 C33.62488281 87.90042969 33.24976563 86.80085937 32.86328125 85.66796875 C30.2043231 77.95995808 27.49075421 70.43090321 23.8828125 63.1015625 C23 61 23 61 23 58 C22.34 58 21.68 58 21 58 C20.74605469 57.21496094 20.49210937 56.42992187 20.23046875 55.62109375 C18.37394447 49.95417508 16.44202986 44.43906651 14 39 C13.33044833 37.33449023 12.66414001 35.66767511 12 34 C9.71933089 28.44571742 7.42822296 22.9013389 4.9375 17.4375 C2.6949925 12.41942994 0.47663637 7.2995845 -1 2 C-0.67 1.34 -0.34 0.68 0 0 Z " fill="#457A5A" transform="translate(1141,471)"/>
<path d="M0 0 C1.40234375 1.328125 1.40234375 1.328125 3.33984375 3.640625 C3.33984375 4.300625 3.33984375 4.960625 3.33984375 5.640625 C3.99984375 5.640625 4.65984375 5.640625 5.33984375 5.640625 C6.17255678 6.94039479 6.97982959 8.25646556 7.77734375 9.578125 C8.22980469 10.30902344 8.68226563 11.03992188 9.1484375 11.79296875 C10.77246924 15.67467083 11.04028015 19.4711772 11.33984375 23.640625 C-8.47812283 25.28853063 -8.47812283 25.28853063 -13.46875 21.51953125 C-15.07919811 18.95694754 -16.37219496 16.37533733 -17.66015625 13.640625 C-22.57999803 9.95074367 -28.62265151 9.36873737 -34.66015625 9.640625 C-41.55206967 11.24843704 -47.91261485 13.65276491 -52.02734375 19.625 C-57.79399964 29.5944729 -57.35862582 40.79316971 -55.40625 51.84765625 C-54.43113014 55.49797405 -53.02234704 57.72725636 -50.66015625 60.640625 C-50.66015625 61.300625 -50.66015625 61.960625 -50.66015625 62.640625 C-42.26125977 67.00805117 -34.10137472 70.26066887 -24.54296875 68.1796875 C-19.28033611 66.49167326 -16.79460118 64.15791328 -13.66015625 59.640625 C-12.97919203 58.31453678 -12.30685039 56.98375899 -11.66015625 55.640625 C-9.33672069 54.47890722 -7.96382309 54.51158531 -5.37890625 54.5078125 C-4.53714844 54.50652344 -3.69539062 54.50523437 -2.828125 54.50390625 C-1.50748047 54.50970703 -1.50748047 54.50970703 -0.16015625 54.515625 C0.72027344 54.51175781 1.60070312 54.50789062 2.5078125 54.50390625 C3.77044922 54.50583984 3.77044922 54.50583984 5.05859375 54.5078125 C5.83138672 54.50894043 6.60417969 54.51006836 7.40039062 54.51123047 C9.33984375 54.640625 9.33984375 54.640625 11.33984375 55.640625 C10.85491007 64.53107585 7.14695244 70.97359711 1.33984375 77.640625 C-10.21258357 87.05879032 -24.07961737 89.9438615 -38.64550781 88.86816406 C-52.69464765 87.28142166 -63.45764081 80.06027459 -72.22265625 69.390625 C-81.73640053 56.93363086 -81.7016373 42.74500937 -80.66015625 27.640625 C-79.89929148 23.53378866 -78.68307639 20.27948726 -76.66015625 16.640625 C-76.16257812 15.7125 -75.665 14.784375 -75.15234375 13.828125 C-68.19693301 1.92304986 -57.78566852 -6.0586617 -44.41015625 -9.734375 C-28.99504633 -12.41526368 -12.40633949 -10.15860269 0 0 Z " fill="#467A5A" transform="translate(1012.66015625,479.359375)"/>
<path d="M0 0 C0.98484375 -0.00128906 1.9696875 -0.00257813 2.984375 -0.00390625 C4.02078125 -0.00003906 5.0571875 0.00382812 6.125 0.0078125 C7.67960937 0.00201172 7.67960937 0.00201172 9.265625 -0.00390625 C10.25046875 -0.00261719 11.2353125 -0.00132812 12.25 0 C13.16007812 0.00112793 14.07015625 0.00225586 15.0078125 0.00341797 C17.125 0.1328125 17.125 0.1328125 18.125 1.1328125 C18.14172261 2.91574312 18.08782927 4.69943586 18.00390625 6.48046875 C17.95556641 7.56005859 17.90722656 8.63964844 17.85742188 9.75195312 C17.80134766 10.88826172 17.74527344 12.02457031 17.6875 13.1953125 C17.63529297 14.33548828 17.58308594 15.47566406 17.52929688 16.65039062 C17.39915067 19.47811273 17.26417121 22.3055225 17.125 25.1328125 C17.84155762 25.09728271 18.55811523 25.06175293 19.29638672 25.02514648 C22.53068015 24.86792024 25.76530386 24.71901306 29 24.5703125 C30.69189453 24.48620117 30.69189453 24.48620117 32.41796875 24.40039062 C34.03251953 24.32788086 34.03251953 24.32788086 35.6796875 24.25390625 C37.17218018 24.18320923 37.17218018 24.18320923 38.69482422 24.11108398 C41.125 24.1328125 41.125 24.1328125 43.125 25.1328125 C43.15184312 27.94537531 43.17176188 30.75768491 43.1875 33.5703125 C43.19587891 34.37275391 43.20425781 35.17519531 43.21289062 36.00195312 C43.2215143 38.04576471 43.1772815 40.08965152 43.125 42.1328125 C42.125 43.1328125 42.125 43.1328125 39.80834961 43.24633789 C38.80811768 43.24110107 37.80788574 43.23586426 36.77734375 43.23046875 C35.69775391 43.22724609 34.61816406 43.22402344 33.50585938 43.22070312 C32.36955078 43.21232422 31.23324219 43.20394531 30.0625 43.1953125 C28.92232422 43.19080078 27.78214844 43.18628906 26.60742188 43.18164062 C23.77989649 43.16980997 20.9524736 43.1533266 18.125 43.1328125 C18.04890321 50.30437418 17.99638038 57.47583164 17.96020508 64.64770508 C17.94512346 67.08719778 17.92465531 69.5266634 17.89868164 71.96606445 C17.86227188 75.47353809 17.84526711 78.98065304 17.83203125 82.48828125 C17.81654739 83.57803757 17.80106354 84.66779388 17.78511047 85.79057312 C17.66055345 93.00476911 17.66055345 93.00476911 21.125 99.1328125 C27.71877197 103.52866048 35.62268417 102.02922891 43.125 101.1328125 C43.26001894 103.57215475 43.35903897 106.00405354 43.4375 108.4453125 C43.47939453 109.13560547 43.52128906 109.82589844 43.56445312 110.53710938 C43.61328125 112.55859375 43.61328125 112.55859375 43.125 116.1328125 C37.46038922 120.91539046 28.91606335 121.64504966 21.7265625 121.43359375 C12.94862961 120.41872763 6.77037202 116.57251302 0.21875 110.83984375 C-4.63864235 104.55967043 -5.35077838 97.28977408 -5.5625 89.5703125 C-5.59520996 88.69826172 -5.62791992 87.82621094 -5.66162109 86.92773438 C-5.75129597 84.32953538 -5.81837559 81.73192411 -5.875 79.1328125 C-5.89159668 78.42141113 -5.90819336 77.71000977 -5.92529297 76.97705078 C-6.14920696 65.67354079 -5.52224034 54.41328707 -4.875 43.1328125 C-5.79023437 43.14441406 -6.70546875 43.15601563 -7.6484375 43.16796875 C-9.43121094 43.18150391 -9.43121094 43.18150391 -11.25 43.1953125 C-12.43335938 43.20691406 -13.61671875 43.21851563 -14.8359375 43.23046875 C-17.875 43.1328125 -17.875 43.1328125 -19.875 42.1328125 C-19.875 36.5228125 -19.875 30.9128125 -19.875 25.1328125 C-15.79468868 23.09265684 -10.32285413 24.70695413 -5.875 25.1328125 C-5.88023682 24.41101807 -5.88547363 23.68922363 -5.89086914 22.94555664 C-5.91157358 19.69548401 -5.92463918 16.44542522 -5.9375 13.1953125 C-5.94587891 12.05900391 -5.95425781 10.92269531 -5.96289062 9.75195312 C-5.96611328 8.67236328 -5.96933594 7.59277344 -5.97265625 6.48046875 C-5.97789307 5.48023682 -5.98312988 4.48000488 -5.98852539 3.44946289 C-5.78163139 -0.7725095 -3.71513421 0.00460445 0 0 Z " fill="#4D7F5F" transform="translate(1089.875,446.8671875)"/>
<path d="M0 0 C0.02683987 2.97922593 0.04676037 5.95821295 0.0625 8.9375 C0.07087891 9.78763672 0.07925781 10.63777344 0.08789062 11.51367188 C0.09111328 12.32255859 0.09433594 13.13144531 0.09765625 13.96484375 C0.10289307 14.7137085 0.10812988 15.46257324 0.11352539 16.23413086 C0 18 0 18 -1 19 C-3.01199704 18.85839937 -5.02378901 18.7105358 -7.0324707 18.52783203 C-18.09496787 17.51756027 -18.09496787 17.51756027 -28 22 C-34.38952402 27.41720515 -36.71815838 32.93736872 -38 41 C-38.30978217 45.15705243 -38.37080559 49.30522861 -38.4140625 53.47265625 C-38.43342865 54.6363121 -38.4527948 55.79996796 -38.4727478 56.99888611 C-38.53214921 60.68668469 -38.57877077 64.37451515 -38.625 68.0625 C-38.66321607 70.57488281 -38.70226988 73.08725302 -38.7421875 75.59960938 C-38.83781809 81.73296047 -38.92297916 87.86638848 -39 94 C-42.45831586 94.02894547 -45.91660072 94.04678 -49.375 94.0625 C-50.35984375 94.07087891 -51.3446875 94.07925781 -52.359375 94.08789062 C-53.77089844 94.09272461 -53.77089844 94.09272461 -55.2109375 94.09765625 C-56.08024902 94.10289307 -56.94956055 94.10812988 -57.84521484 94.11352539 C-60 94 -60 94 -62 93 C-62.02313322 81.03923515 -62.04092011 69.07847558 -62.05181217 57.11769295 C-62.05703885 51.56429379 -62.06413261 46.0109099 -62.07543945 40.45751953 C-62.08627595 35.10184453 -62.09227846 29.74618423 -62.09487724 24.39049911 C-62.09673011 22.34349206 -62.10034809 20.29648584 -62.10573006 18.24948502 C-62.11295057 15.3904265 -62.11399051 12.5314294 -62.11352539 9.67236328 C-62.11712067 8.81928589 -62.12071594 7.9662085 -62.12442017 7.08728027 C-62.11405216 1.22810432 -62.11405216 1.22810432 -61 -1 C-57.52085059 -1.02887814 -54.04173169 -1.04675687 -50.5625 -1.0625 C-49.56927734 -1.07087891 -48.57605469 -1.07925781 -47.55273438 -1.08789062 C-46.60849609 -1.09111328 -45.66425781 -1.09433594 -44.69140625 -1.09765625 C-43.37958374 -1.10551147 -43.37958374 -1.10551147 -42.04125977 -1.11352539 C-40 -1 -40 -1 -39 0 C-38.92755947 2.01964199 -38.91622812 4.04167124 -38.9375 6.0625 C-38.94652344 7.16722656 -38.95554687 8.27195312 -38.96484375 9.41015625 C-38.97644531 10.26480469 -38.98804688 11.11945313 -39 12 C-38.319375 10.7625 -38.319375 10.7625 -37.625 9.5 C-37.08875 8.675 -36.5525 7.85 -36 7 C-35.34 7 -34.68 7 -34 7 C-33.814375 6.4225 -33.62875 5.845 -33.4375 5.25 C-30.74675266 1.03839548 -26.20049485 -0.54698308 -21.6875 -2.25 C-13.48911643 -3.91746785 -7.68368346 -3.08814001 0 0 Z " fill="#407556" transform="translate(883,472)"/>
<path d="M0 0 C0.97582031 -0.01224609 1.95164062 -0.02449219 2.95703125 -0.03710938 C4.35501953 -0.04000977 4.35501953 -0.04000977 5.78125 -0.04296875 C6.63783203 -0.04707764 7.49441406 -0.05118652 8.37695312 -0.05541992 C10.5 0.1875 10.5 0.1875 12.5 2.1875 C12.74723816 4.13587952 12.74723816 4.13587952 12.74291992 6.55102539 C12.74599655 7.45699966 12.74907318 8.36297394 12.75224304 9.29640198 C12.74505753 10.28269089 12.73787201 11.2689798 12.73046875 12.28515625 C12.72978142 13.81854897 12.72978142 13.81854897 12.7290802 15.38291931 C12.72605145 17.55940909 12.71814674 19.73589659 12.70581055 21.91235352 C12.6878594 25.18448924 12.68529889 28.45633641 12.68554688 31.72851562 C12.66823883 41.63732458 12.5251692 51.49612465 11.84843445 61.38294983 C11.39608554 68.15619027 11.42333897 74.90299914 11.5 81.6875 C11.5253434 84.0520393 11.54643236 86.41662948 11.5625 88.78125 C11.57410156 89.79896484 11.58570313 90.81667969 11.59765625 91.86523438 C11.5 94.1875 11.5 94.1875 10.5 95.1875 C8.96218409 95.28652107 7.41990556 95.31829567 5.87890625 95.3203125 C4.47608398 95.32224609 4.47608398 95.32224609 3.04492188 95.32421875 C1.56862305 95.31841797 1.56862305 95.31841797 0.0625 95.3125 C-1.40799805 95.31830078 -1.40799805 95.31830078 -2.90820312 95.32421875 C-3.84470703 95.32292969 -4.78121094 95.32164062 -5.74609375 95.3203125 C-7.04051392 95.31862061 -7.04051392 95.31862061 -8.36108398 95.31689453 C-10.5 95.1875 -10.5 95.1875 -12.5 94.1875 C-12.5 63.4975 -12.5 32.8075 -12.5 1.1875 C-8.72960943 -0.69769529 -4.14845405 0.00274006 0 0 Z " fill="#538464" transform="translate(1046.5,470.8125)"/>
<path d="M0 0 C7.59 0 15.18 0 23 0 C23.33 31.02 23.66 62.04 24 94 C21.15090394 94.94969869 19.35751252 95.12869462 16.40234375 95.1328125 C15.07686523 95.13474609 15.07686523 95.13474609 13.72460938 95.13671875 C12.80486328 95.13285156 11.88511719 95.12898437 10.9375 95.125 C10.01388672 95.12886719 9.09027344 95.13273438 8.13867188 95.13671875 C7.25630859 95.13542969 6.37394531 95.13414062 5.46484375 95.1328125 C4.656521 95.13168457 3.84819824 95.13055664 3.01538086 95.12939453 C1 95 1 95 -1 94 C-0.67 62.98 -0.34 31.96 0 0 Z " fill="#326B4B" transform="translate(896,471)"/>
<path d="M0 0 C7.59 0 15.18 0 23 0 C23.33 31.02 23.66 62.04 24 94 C21.15090394 94.94969869 19.35751252 95.12869462 16.40234375 95.1328125 C15.07686523 95.13474609 15.07686523 95.13474609 13.72460938 95.13671875 C12.80486328 95.13285156 11.88511719 95.12898437 10.9375 95.125 C10.01388672 95.12886719 9.09027344 95.13273438 8.13867188 95.13671875 C7.25630859 95.13542969 6.37394531 95.13414062 5.46484375 95.1328125 C4.656521 95.13168457 3.84819824 95.13055664 3.01538086 95.12939453 C1 95 1 95 -1 94 C-0.67 62.98 -0.34 31.96 0 0 Z M2 2 C2 32.36 2 62.72 2 94 C8.27 94 14.54 94 21 94 C21 63.64 21 33.28 21 2 C14.73 2 8.46 2 2 2 Z " fill="#C3D5B5" transform="translate(896,471)"/>
<path d="M0 0 C6.6 0 13.2 0 20 0 C20 8.25 20 16.5 20 25 C28.25 25 36.5 25 45 25 C45 30.28 45 35.56 45 41 C36.75 41 28.5 41 20 41 C20 40.67 20 40.34 20 40 C27.92 40 35.84 40 44 40 C44 35.38 44 30.76 44 26 C42.20691406 26.01160156 40.41382813 26.02320313 38.56640625 26.03515625 C36.23177187 26.04453229 33.89713637 26.05363269 31.5625 26.0625 C30.37849609 26.07087891 29.19449219 26.07925781 27.97460938 26.08789062 C26.84990234 26.09111328 25.72519531 26.09433594 24.56640625 26.09765625 C23.00321655 26.10551147 23.00321655 26.10551147 21.40844727 26.11352539 C19 26 19 26 18 25 C17.91273777 23.21928754 17.89300959 21.4351686 17.90234375 19.65234375 C17.90556641 18.57275391 17.90878906 17.49316406 17.91210938 16.38085938 C17.92048828 15.24455078 17.92886719 14.10824219 17.9375 12.9375 C17.94201172 11.79732422 17.94652344 10.65714844 17.95117188 9.48242188 C17.96300253 6.65489649 17.9794859 3.8274736 18 1 C17.1032959 1.24447876 17.1032959 1.24447876 16.18847656 1.49389648 C13.33740663 2.15323026 10.67270835 2.09426857 7.75 2.0625 C6.67234375 2.05347656 5.5946875 2.04445313 4.484375 2.03515625 C3.66453125 2.02355469 2.8446875 2.01195312 2 2 C2.00785522 3.0372522 2.00785522 3.0372522 2.01586914 4.09545898 C2.036575 7.20946352 2.04963963 10.32345361 2.0625 13.4375 C2.07087891 14.52611328 2.07925781 15.61472656 2.08789062 16.73632812 C2.09272461 18.28803711 2.09272461 18.28803711 2.09765625 19.87109375 C2.10551147 21.30859985 2.10551147 21.30859985 2.11352539 22.77514648 C2 25 2 25 1 26 C-3.66845228 26.14426614 -8.32865953 26.04208415 -13 26 C-13 30.62 -13 35.24 -13 40 C-13.33 40 -13.66 40 -14 40 C-14 35.05 -14 30.1 -14 25 C-9.38 25 -4.76 25 0 25 C0 16.75 0 8.5 0 0 Z " fill="#175537" transform="translate(1086,448)"/>
<path d="M0 0 C3.47914941 -0.02887814 6.95826831 -0.04675687 10.4375 -0.0625 C11.92733398 -0.07506836 11.92733398 -0.07506836 13.44726562 -0.08789062 C14.39150391 -0.09111328 15.33574219 -0.09433594 16.30859375 -0.09765625 C17.62041626 -0.10551147 17.62041626 -0.10551147 18.95874023 -0.11352539 C21 0 21 0 22 1 C22.07313567 3.53049402 22.09247527 6.03304837 22.0625 8.5625 C22.05798828 9.27341797 22.05347656 9.98433594 22.04882812 10.71679688 C22.03700864 12.47790013 22.01907263 14.23896036 22 16 C21.34 16 20.68 16 20 16 C20 11.38 20 6.76 20 2 C13.73 2 7.46 2 1 2 C1 32.36 1 62.72 1 94 C0.34 94 -0.32 94 -1 94 C-1.02313322 82.03923515 -1.04092011 70.07847558 -1.05181217 58.11769295 C-1.05703885 52.56429379 -1.06413261 47.0109099 -1.07543945 41.45751953 C-1.08627595 36.10184453 -1.09227846 30.74618423 -1.09487724 25.39049911 C-1.09673011 23.34349206 -1.10034809 21.29648584 -1.10573006 19.24948502 C-1.11295057 16.3904265 -1.11399051 13.5314294 -1.11352539 10.67236328 C-1.11712067 9.81928589 -1.12071594 8.9662085 -1.12442017 8.08728027 C-1.11405216 2.22810432 -1.11405216 2.22810432 0 0 Z " fill="#DEE7C6" transform="translate(822,471)"/>
<path d="M0 0 C1.31871498 3.95614494 0.00230452 6.19358524 -1.52734375 9.85546875 C-1.79511124 10.51710526 -2.06287872 11.17874176 -2.33876038 11.86042786 C-3.19617585 13.9731758 -4.06662626 16.08026872 -4.9375 18.1875 C-5.52104864 19.61878771 -6.10374168 21.05042458 -6.68554688 22.48242188 C-8.1122348 25.99317319 -9.55641715 29.49597291 -11 33 C-4.4 33 2.2 33 9 33 C9.391875 31.5975 9.78375 30.195 10.1875 28.75 C12.00803349 22.64070972 14.46117209 16.84030769 17 11 C18.35804499 14.05950365 17.90725778 15.27761246 16.8203125 18.53125 C16.26645623 19.85891504 15.70092997 21.1817603 15.125 22.5 C12.99344046 27.35454651 12.99344046 27.35454651 11.4296875 32.40625 C11.28789063 32.9321875 11.14609375 33.458125 11 34 C7.22960943 35.88519529 2.64845405 35.18475994 -1.5 35.1875 C-2.47582031 35.19974609 -3.45164062 35.21199219 -4.45703125 35.22460938 C-5.38902344 35.22654297 -6.32101562 35.22847656 -7.28125 35.23046875 C-8.13783203 35.23457764 -8.99441406 35.23868652 -9.87695312 35.24291992 C-12 35 -12 35 -14 33 C-13.68546875 32.34515625 -13.3709375 31.6903125 -13.046875 31.015625 C-10.72213397 26.05804472 -8.65310183 21.16103077 -7 15.9375 C-5.20528726 10.31063424 -2.8017586 5.19014297 0 0 Z " fill="#DDE8C8" transform="translate(1176,570)"/>
<path d="M0 0 C1.49249268 0.01571045 1.49249268 0.01571045 3.01513672 0.03173828 C4.6296875 0.04140625 4.6296875 0.04140625 6.27685547 0.05126953 C7.40478516 0.06802734 8.53271484 0.08478516 9.69482422 0.10205078 C11.39832031 0.11558594 11.39832031 0.11558594 13.13623047 0.12939453 C15.94763721 0.1530198 18.7586272 0.18596065 21.56982422 0.22705078 C21.08403879 3.34995713 20.57122302 6.22285437 19.56982422 9.22705078 C18.90982422 9.22705078 18.24982422 9.22705078 17.56982422 9.22705078 C17.89982422 7.24705078 18.22982422 5.26705078 18.56982422 3.22705078 C11.63982422 2.89705078 4.70982422 2.56705078 -2.43017578 2.22705078 C-2.76017578 4.20705078 -3.09017578 6.18705078 -3.43017578 8.22705078 C-4.06526841 10.03795747 -4.75118693 11.83204514 -5.49267578 13.60205078 C-5.85490234 14.47603516 -6.21712891 15.35001953 -6.59033203 16.25048828 C-6.86748047 16.90275391 -7.14462891 17.55501953 -7.43017578 18.22705078 C-8.72701201 14.33654209 -7.84365543 12.54176556 -6.61767578 8.66455078 C-6.26060547 7.50826172 -5.90353516 6.35197266 -5.53564453 5.16064453 C-4.25933635 1.77369242 -3.71728531 0.34730514 0 0 Z " fill="#DDE8C5" transform="translate(1217.43017578125,470.77294921875)"/>
<path d="M0 0 C0.99 0.495 0.99 0.495 2 1 C5.97252463 16.69392445 8.06301765 43.46624129 0 58 C0.2165625 56.0509375 0.2165625 56.0509375 0.4375 54.0625 C0.52773438 53.2375 0.61796875 52.4125 0.7109375 51.5625 C0.8920477 49.95698255 1.08318199 48.35252938 1.2890625 46.75 C1.98958975 41.145782 2.10605585 35.64452809 2 30 C1.67 30 1.34 30 1 30 C1.00523682 29.37544922 1.01047363 28.75089844 1.01586914 28.10742188 C1.03684076 25.23829176 1.04972376 22.36917785 1.0625 19.5 C1.07087891 18.51773437 1.07925781 17.53546875 1.08789062 16.5234375 C1.10659124 10.91325243 0.838879 5.54849101 0 0 Z " fill="#C6D7B6" transform="translate(556,476)"/>
<path d="M0 0 C4.80472611 4.11833667 5.98245133 8.89470801 7 15 C0.4 15 -6.2 15 -13 15 C-13.66 13.35 -14.32 11.7 -15 10 C-14.01 10.495 -14.01 10.495 -13 11 C-13 11.66 -13 12.32 -13 13 C-4.585 12.505 -4.585 12.505 4 12 C3.34 10.39125 2.68 8.7825 2 7.125 C0 2.25 0 2.25 0 0 Z " fill="#246041" transform="translate(1016,487)"/>
<path d="M0 0 C1.50567948 4.51703845 -0.22769614 7.71129523 -2 12 C-3.54373348 15.07750738 -5.23406 18.04533664 -7 21 C-7.598125 22.010625 -8.19625 23.02125 -8.8125 24.0625 C-9.204375 24.701875 -9.59625 25.34125 -10 26 C-11.17976601 22.50028494 -11.00967899 22.02302426 -9.453125 18.3203125 C-8.73084734 16.91558866 -7.99596163 15.5172914 -7.25 14.125 C-6.8890625 13.43019531 -6.528125 12.73539063 -6.15625 12.01953125 C-5.44659116 10.65420935 -4.73250787 9.2911766 -4.01367188 7.93066406 C-2.63603697 5.30678717 -1.3152922 2.6555583 0 0 Z " fill="#729A7B" transform="translate(547,556)"/>
<path d="M0 0 C1.69573155 5.08719465 -0.71256285 10.22790129 -2.91796875 14.9765625 C-3.56871201 16.22492713 -4.22654391 17.46961669 -4.890625 18.7109375 C-6.8666729 22.78827577 -8.31622064 27.08098147 -9.8515625 31.33984375 C-11 34 -11 34 -13 35 C-12.31815331 30.74287427 -10.89819977 26.92008287 -9.27734375 22.94921875 C-9.01240616 22.29041214 -8.74746857 21.63160553 -8.47450256 20.95283508 C-7.63289135 18.86272663 -6.78529668 16.77510607 -5.9375 14.6875 C-5.36353459 13.26513438 -4.78996263 11.84260992 -4.21679688 10.41992188 C-2.8157456 6.94475946 -1.40932541 3.47181468 0 0 Z " fill="#EAF0D6" transform="translate(1225,502)"/>
<path d="M0 0 C3 1 3 1 4.6875 4.375 C6.3842426 9.36595031 7.06521833 14.80810906 6 20 C4.16015625 21.88671875 4.16015625 21.88671875 2 23 C1.01 22.67 0.02 22.34 -1 22 C-0.34 22 0.32 22 1 22 C1 21.34 1 20.68 1 20 C2.32 19.67 3.64 19.34 5 19 C4.67 17.02 4.34 15.04 4 13 C3.67 13 3.34 13 3 13 C2.49487756 11.39743892 1.99608373 9.79288208 1.5 8.1875 C1.2215625 7.29417969 0.943125 6.40085937 0.65625 5.48046875 C0 3 0 3 0 0 Z " fill="#6B9572" transform="translate(455,561)"/>
<path d="M0 0 C0.33 0 0.66 0 1 0 C1.66 4.29 2.32 8.58 3 13 C7.71058562 14.3721042 7.71058562 14.3721042 11 13 C11 9.7 11 6.4 11 3 C11.33 3 11.66 3 12 3 C12.10815225 4.76949095 12.18566083 6.54087487 12.25 8.3125 C12.29640625 9.29863281 12.3428125 10.28476562 12.390625 11.30078125 C12 14 12 14 10.1796875 15.8671875 C7.11505596 17.45991715 5.2603998 16.92141733 2 16 C0 14 0 14 -0.1953125 10.7421875 C-0.17210937 9.46601563 -0.14890625 8.18984375 -0.125 6.875 C-0.10695313 5.59367187 -0.08890625 4.31234375 -0.0703125 2.9921875 C-0.04710937 2.00476563 -0.02390625 1.01734375 0 0 Z " fill="#8EAF8D" transform="translate(435,445)"/>
<path d="M0 0 C1.06250977 -0.0009668 1.06250977 -0.0009668 2.14648438 -0.00195312 C7.16332899 0.04881531 11.44507053 0.60669018 16.1875 2.1875 C13.53222696 2.880953 10.90182695 3.46679067 8.1875 3.875 C7.5275 3.98199219 6.8675 4.08898437 6.1875 4.19921875 C4.1875 4.1875 4.1875 4.1875 2.359375 3.21484375 C-0.67252626 1.78068902 -3.23042112 1.99585842 -6.5625 2.0625 C-7.73296875 2.08054687 -8.9034375 2.09859375 -10.109375 2.1171875 C-11.00140625 2.14039063 -11.8934375 2.16359375 -12.8125 2.1875 C-12.8125 1.8575 -12.8125 1.5275 -12.8125 1.1875 C-8.54130183 0.15080141 -4.37290743 -0.00409065 0 0 Z " fill="#AEC5A7" transform="translate(980.8125,468.8125)"/>
<path d="M0 0 C6.35821144 1.3042485 10.65510727 5.40682769 15 10 C16.04858583 11.63653461 17.06366066 13.29675415 18 15 C15.05043472 13.63055898 12.47531189 12.12169591 10 10 C10 9.34 10 8.68 10 8 C7.525 7.01 7.525 7.01 5 6 C5 5.34 5 4.68 5 4 C4.360625 3.71125 3.72125 3.4225 3.0625 3.125 C1 2 1 2 0 0 Z " fill="#8AAB8E" transform="translate(357,651)"/>
<path d="M0 0 C0.66 0 1.32 0 2 0 C1.01 5.28 0.02 10.56 -1 16 C-1.33 16 -1.66 16 -2 16 C-2.33 17.65 -2.66 19.3 -3 21 C-3.66 20.67 -4.32 20.34 -5 20 C-4.43724182 12.90924697 -3.20499473 6.40998947 0 0 Z " fill="#96B49A" transform="translate(378,630)"/>
<path d="M0 0 C1 2 1 2 0.109375 4.6875 C-0.33921875 5.780625 -0.7878125 6.87375 -1.25 8 C-3.48622147 13.59989722 -5.38749765 19.1923696 -7 25 C-8.29012683 21.12961951 -7.54732624 18.84405573 -6.6875 14.875 C-6.42324219 13.61429687 -6.15898437 12.35359375 -5.88671875 11.0546875 C-5.59410156 10.04664063 -5.30148437 9.03859375 -5 8 C-4.34 7.67 -3.68 7.34 -3 7 C-2.835 6.01 -2.67 5.02 -2.5 4 C-2.335 3.01 -2.17 2.02 -2 1 C-1.34 0.67 -0.68 0.34 0 0 Z " fill="#9BB89E" transform="translate(323,460)"/>
<path d="M0 0 C1.8871875 0.061875 1.8871875 0.061875 3.8125 0.125 C3.8125 0.785 3.8125 1.445 3.8125 2.125 C4.4725 2.125 5.1325 2.125 5.8125 2.125 C7.07514601 6.41799643 6.44200412 9.00331311 4.8125 13.125 C3.74703047 9.9285914 3.73822162 7.46752724 3.8125 4.125 C0.85585481 2.6466774 -1.92979737 3.06467217 -5.1875 3.125 C-5.5175 5.105 -5.8475 7.085 -6.1875 9.125 C-6.5175 9.125 -6.8475 9.125 -7.1875 9.125 C-7.375 5.75 -7.375 5.75 -7.1875 2.125 C-4.09861478 0.06574319 -3.47814073 -0.1140374 0 0 Z " fill="#A8C1A4" transform="translate(470.1875,454.875)"/>
<path d="M0 0 C0.66 0 1.32 0 2 0 C2.31565274 5.26087893 1.7659748 8.49248551 -1 13 C-1.98095748 14.01868662 -2.97702078 15.02351983 -4 16 C-4.33 16.99 -4.66 17.98 -5 19 C-5.66 19 -6.32 19 -7 19 C-5.84386065 14.46437638 -4.39098471 10.98497452 -2 7 C-1.27833809 4.68308546 -0.59940471 2.35151077 0 0 Z " fill="#A2BD9A" transform="translate(542,534)"/>
<path d="M0 0 C-3.14507059 2.09671373 -5.76825249 2.97717438 -9.375 4.0625 C-10.49648438 4.40410156 -11.61796875 4.74570312 -12.7734375 5.09765625 C-15.50972389 5.86288889 -18.20644008 6.4925556 -21 7 C-21 6.34 -21 5.68 -21 5 C-19.68 5 -18.36 5 -17 5 C-17 4.34 -17 3.68 -17 3 C-15.1096624 2.29753005 -13.21243172 1.61359151 -11.3125 0.9375 C-10.25675781 0.55464844 -9.20101563 0.17179688 -8.11328125 -0.22265625 C-4.90666208 -1.0233052 -3.1313693 -0.9237249 0 0 Z " fill="#6F987B" transform="translate(432,657)"/>
<path d="M0 0 C-1.98 0.33 -3.96 0.66 -6 1 C-6 1.66 -6 2.32 -6 3 C-6.67546875 3.19335938 -7.3509375 3.38671875 -8.046875 3.5859375 C-9.38492187 3.97652344 -9.38492187 3.97652344 -10.75 4.375 C-11.63171875 4.63023437 -12.5134375 4.88546875 -13.421875 5.1484375 C-15.76080572 5.9209934 -17.83442562 6.83625676 -20 8 C-20.66 7.34 -21.32 6.68 -22 6 C-19.56292162 5.0197729 -17.12536055 4.04077829 -14.6875 3.0625 C-13.99720703 2.78470703 -13.30691406 2.50691406 -12.59570312 2.22070312 C-3.97821465 -1.23461834 -3.97821465 -1.23461834 0 0 Z " fill="#6F9776" transform="translate(426,648)"/>
<path d="M0 0 C2 0 2 0 4.125 1.875 C6 4 6 4 6 6 C6.66 6 7.32 6 8 6 C9.6875 8.3125 9.6875 8.3125 11 11 C10.67 11.99 10.34 12.98 10 14 C9.54109375 13.46890625 9.0821875 12.9378125 8.609375 12.390625 C5.50506283 8.81675301 2.41818688 5.28145941 -1 2 C-0.67 1.34 -0.34 0.68 0 0 Z " fill="#82A587" transform="translate(676,478)"/>
<path d="M0 0 C0.33 0.66 0.66 1.32 1 2 C0.34 2 -0.32 2 -1 2 C-1.226875 2.886875 -1.45375 3.77375 -1.6875 4.6875 C-3.20877912 8.52691872 -4.80913574 10.40278491 -8 13 C-10.8125 13.8125 -10.8125 13.8125 -13 14 C-11.625 12 -11.625 12 -10 10 C-9.34 10 -8.68 10 -8 10 C-7.34 8.68 -6.68 7.36 -6 6 C-5.34 6 -4.68 6 -4 6 C-3.71125 5.195625 -3.4225 4.39125 -3.125 3.5625 C-2 1 -2 1 0 0 Z " fill="#8CAB91" transform="translate(530,559)"/>
<path d="M0 0 C0.66 0.33 1.32 0.66 2 1 C1.56429688 1.42410156 1.12859375 1.84820312 0.6796875 2.28515625 C-3.01778292 5.92660439 -6.44132809 9.62585472 -9.640625 13.71484375 C-11 15 -11 15 -14 15 C-14 14.34 -14 13.68 -14 13 C-12.4609375 11.484375 -12.4609375 11.484375 -10.375 9.75 C-6.72639996 6.65323448 -3.34103014 3.42455589 0 0 Z " fill="#87A98C" transform="translate(351,404)"/>
<path d="M0 0 C0.66 0 1.32 0 2 0 C2.10841951 1.91541138 2.18578079 3.83259773 2.25 5.75 C2.29640625 6.81734375 2.3428125 7.8846875 2.390625 8.984375 C1.91735478 12.63802112 0.80844958 13.72228105 -2 16 C-2.33 15.34 -2.66 14.68 -3 14 C-2.33333333 12.66666667 -1.66666667 11.33333333 -1 10 C-0.54935368 7.41467299 -0.54935368 7.41467299 -0.375 4.75 C-0.30023437 3.85796875 -0.22546875 2.9659375 -0.1484375 2.046875 C-0.09945312 1.37140625 -0.05046875 0.6959375 0 0 Z " fill="#739A7D" transform="translate(668,527)"/>
<path d="M0 0 C0.66 0.33 1.32 0.66 2 1 C1.34 2.98 0.68 4.96 0 7 C1.2375 7.144375 2.475 7.28875 3.75 7.4375 C6.56504499 7.78688502 9.2701497 8.20379366 12 9 C8.6987992 11.20080053 8.10898842 11.21218749 4.375 10.75 C3.57835937 10.66234375 2.78171875 10.5746875 1.9609375 10.484375 C1.31382812 10.32453125 0.66671875 10.1646875 0 10 C-1.49106457 7.01787087 -1.11941467 4.28390342 -1 1 C-0.67 0.67 -0.34 0.34 0 0 Z " fill="#71997B" transform="translate(468,563)"/>
<path d="M0 0 C3.3 0.99 6.6 1.98 10 3 C10 3.66 10 4.32 10 5 C10.99 5 11.98 5 13 5 C13 5.66 13 6.32 13 7 C14.65 7.33 16.3 7.66 18 8 C13.86381203 9.37872932 12.1062005 7.98012377 8.296875 6.1875 C5.33214473 4.65471428 2.67864106 2.99181002 0 1 C0 0.67 0 0.34 0 0 Z " fill="#7B9F80" transform="translate(343,513)"/>
<path d="M0 0 C2.475 0.495 2.475 0.495 5 1 C5.33 1.99 5.66 2.98 6 4 C6.66 4 7.32 4 8 4 C9.06775224 5.96466413 10.06553465 7.96855359 11 10 C10.67 10.66 10.34 11.32 10 12 C9.443125 11.278125 8.88625 10.55625 8.3125 9.8125 C6.02680364 6.93981825 6.02680364 6.93981825 3.3125 4.3125 C1 2 1 2 0 0 Z " fill="#A2BB9E" transform="translate(1010,481)"/>
<path d="M0 0 C3.7602985 0.58107632 6.53035032 1.65199496 9.8125 3.5625 C10.60269531 4.01753906 11.39289063 4.47257812 12.20703125 4.94140625 C12.79871094 5.29074219 13.39039063 5.64007813 14 6 C13.34 6.66 12.68 7.32 12 8 C12 7.34 12 6.68 12 6 C10.700625 5.8453125 10.700625 5.8453125 9.375 5.6875 C5.83316877 4.96601586 3.15687958 3.72876739 0 2 C0 1.34 0 0.68 0 0 Z " fill="#739A7D" transform="translate(482,387)"/>
<path d="M0 0 C-1 3 -1 3 -3.21484375 4.38671875 C-4.56255859 5.03060547 -4.56255859 5.03060547 -5.9375 5.6875 C-6.83339844 6.12449219 -7.72929687 6.56148437 -8.65234375 7.01171875 C-11 8 -11 8 -13 8 C-12 5 -12 5 -9.78515625 3.61328125 C-8.43744141 2.96939453 -8.43744141 2.96939453 -7.0625 2.3125 C-6.16660156 1.87550781 -5.27070313 1.43851563 -4.34765625 0.98828125 C-2 0 -2 0 0 0 Z " fill="#648F70" transform="translate(478,637)"/>
<path d="M0 0 C1.97986082 0.11347619 3.95891598 0.2410935 5.9375 0.375 C7.03964844 0.44460938 8.14179688 0.51421875 9.27734375 0.5859375 C10.62505859 0.79089844 10.62505859 0.79089844 12 1 C12.33 1.66 12.66 2.32 13 3 C8.71 3 4.42 3 0 3 C0 2.01 0 1.02 0 0 Z " fill="#30674A" transform="translate(491,530)"/>
<path d="M0 0 C0.66 0.33 1.32 0.66 2 1 C-0.57684673 4.13400278 -3.13248801 7.13248801 -6 10 C-7.01800576 11.31963709 -8.02248365 12.65009646 -9 14 C-8.55183136 9.07014496 -6.17966006 5.64833828 -3 2 C-2.01 1.34 -1.02 0.68 0 0 Z " fill="#A4BDA2" transform="translate(394,444)"/>
<path d="M0 0 C0.99 0.66 1.98 1.32 3 2 C0.90049414 2.86555948 -1.2047907 3.71711277 -3.3125 4.5625 C-5.07013672 5.27599609 -5.07013672 5.27599609 -6.86328125 6.00390625 C-10 7 -10 7 -13 6 C-12.34 6 -11.68 6 -11 6 C-11 5.34 -11 4.68 -11 4 C-9.23585377 3.27517252 -7.46337096 2.57060704 -5.6875 1.875 C-4.70136719 1.48054687 -3.71523438 1.08609375 -2.69921875 0.6796875 C-1.80847656 0.45539062 -0.91773438 0.23109375 0 0 Z " fill="#679173" transform="translate(455,647)"/>
<path d="M0 0 C4.29 0.33 8.58 0.66 13 1 C13 1.33 13 1.66 13 2 C6.34362157 3.23839599 -0.2471936 3.09139136 -7 3 C-7 2.67 -7 2.34 -7 2 C-3.535 1.505 -3.535 1.505 0 1 C0 0.67 0 0.34 0 0 Z " fill="#A3BD9B" transform="translate(369,520)"/>
<path d="M0 0 C4.71590568 0.41610932 8.03624022 2.59065582 12 5 C9.36749612 6.31625194 8.19820944 5.74813658 5.375 5.0625 C4.55773437 4.86785156 3.74046875 4.67320312 2.8984375 4.47265625 C1.95871094 4.23869141 1.95871094 4.23869141 1 4 C1 3.34 1 2.68 1 2 C0.34 1.67 -0.32 1.34 -1 1 C-0.67 0.67 -0.34 0.34 0 0 Z " fill="#789D7D" transform="translate(664,472)"/>
<path d="M0 0 C0.33 0.99 0.66 1.98 1 3 C0.34 3.66 -0.32 4.32 -1 5 C-1.30059943 7.36509361 -1.49515012 9.74441881 -1.625 12.125 C-1.69976562 13.40632813 -1.77453125 14.68765625 -1.8515625 16.0078125 C-1.90054687 16.99523437 -1.94953125 17.98265625 -2 19 C-2.33 19 -2.66 19 -3 19 C-3.33 13.39 -3.66 7.78 -4 2 C-3.01 2 -2.02 2 -1 2 C-0.67 1.34 -0.34 0.68 0 0 Z " fill="#A8C1A1" transform="translate(371,439)"/>
<path d="M0 0 C0 0.33 0 0.66 0 1 C-2.31 1.33 -4.62 1.66 -7 2 C-7 2.33 -7 2.66 -7 3 C-10.375 3.1875 -10.375 3.1875 -14 3 C-14.66 2.01 -15.32 1.02 -16 0 C-10.42289352 -1.06795656 -5.60563042 -0.82622671 0 0 Z " fill="#79A083" transform="translate(404,415)"/>
<path d="M0 0 C-2.54782974 2.97246802 -5.45340883 4.41535288 -9 6 C-9.66 6 -10.32 6 -11 6 C-9.89210592 2.67631776 -9.51563783 2.38436907 -6.625 0.75 C-6.01914062 0.39421875 -5.41328125 0.0384375 -4.7890625 -0.328125 C-3 -1 -3 -1 0 0 Z " fill="#6D9577" transform="translate(790,558)"/>
<path d="M0 0 C-3.40219265 2.74792483 -7.48464588 6 -12 6 C-11 3 -11 3 -8.25 1.3125 C-5.14979295 0.06049331 -3.28328088 -0.28970125 0 0 Z " fill="#608D6F" transform="translate(387,396)"/>
<path d="M0 0 C0.99 0.66 1.98 1.32 3 2 C1.54735962 2.8638129 0.0876837 3.71580454 -1.375 4.5625 C-2.59316406 5.27599609 -2.59316406 5.27599609 -3.8359375 6.00390625 C-4.55007813 6.33261719 -5.26421875 6.66132812 -6 7 C-6.66 6.67 -7.32 6.34 -8 6 C-5.51047079 3.33264727 -3.36591866 1.44253657 0 0 Z " fill="#7A9E82" transform="translate(408,663)"/>
<path d="M0 0 C0.33 0 0.66 0 1 0 C1.10815225 1.76949095 1.18566083 3.54087487 1.25 5.3125 C1.29640625 6.29863281 1.3428125 7.28476562 1.390625 8.30078125 C1 11 1 11 -0.828125 12.91796875 C-3 14 -3 14 -6 13 C-5.34 13 -4.68 13 -4 13 C-4 12.34 -4 11.68 -4 11 C-2.68 10.67 -1.36 10.34 0 10 C0 6.7 0 3.4 0 0 Z " fill="#A6BF9F" transform="translate(460,570)"/>
<path d="M0 0 C0 4.1041911 -1.45843064 5.84021107 -4 9 C-6.75 9.875 -6.75 9.875 -9 10 C-8.2575 9.278125 -7.515 8.55625 -6.75 7.8125 C-4.30709485 5.31407427 -2.1318953 2.76356798 0 0 Z " fill="#1D5B3B" transform="translate(1002,538)"/>
<path d="M0 0 C0.99 0.33 1.98 0.66 3 1 C2.24172908 2.17487036 1.46792245 3.33972592 0.6875 4.5 C0.25824219 5.1496875 -0.17101562 5.799375 -0.61328125 6.46875 C-1.07089844 6.9740625 -1.52851563 7.479375 -2 8 C-2.99 8 -3.98 8 -5 8 C-5 7.34 -5 6.68 -5 6 C-4.34 6 -3.68 6 -3 6 C-2.690625 5.195625 -2.38125 4.39125 -2.0625 3.5625 C-1 1 -1 1 0 0 Z " fill="#658E72" transform="translate(392,492)"/>
<path d="M0 0 C1.32 0 2.64 0 4 0 C4 0.66 4 1.32 4 2 C4.639375 2.2475 5.27875 2.495 5.9375 2.75 C8 4 8 4 8.75 6.125 C8.87375 7.053125 8.87375 7.053125 9 8 C4.7257442 6.4169423 2.73468206 3.49431596 0 0 Z " fill="#71997B" transform="translate(505,414)"/>
<path d="M0 0 C0.515625 0.2475 1.03125 0.495 1.5625 0.75 C-4.6375 4.88333333 -4.6375 4.88333333 -7.6875 4.375 C-8.265 4.16875 -8.8425 3.9625 -9.4375 3.75 C-3.0375 -0.31153846 -3.0375 -0.31153846 0 0 Z " fill="#679074" transform="translate(403.4375,655.25)"/>
<path d="M0 0 C0.66 0.33 1.32 0.66 2 1 C2 1.66 2 2.32 2 3 C-0.25 5.1875 -0.25 5.1875 -3 7 C-5.3125 6.75 -5.3125 6.75 -7 6 C-6.01 5.67 -5.02 5.34 -4 5 C-4 4.34 -4 3.68 -4 3 C-2.68 2.67 -1.36 2.34 0 2 C0 1.34 0 0.68 0 0 Z " fill="#73997D" transform="translate(489,615)"/>
<path d="M0 0 C0.99 0.66 1.98 1.32 3 2 C1.71086513 2.67154933 0.41859796 3.33708859 -0.875 4 C-1.59429687 4.37125 -2.31359375 4.7425 -3.0546875 5.125 C-5 6 -5 6 -7 6 C-6 3 -6 3 -2.9375 1.3125 C-1.968125 0.879375 -0.99875 0.44625 0 0 Z " fill="#69937A" transform="translate(413,611)"/>
<path d="M0 0 C-2.85478326 1.90318884 -4.41941308 2.4619099 -7.6875 3.125 C-8.49574219 3.29257812 -9.30398438 3.46015625 -10.13671875 3.6328125 C-10.75160156 3.75398437 -11.36648438 3.87515625 -12 4 C-12 3.34 -12 2.68 -12 2 C-7.8794254 0.00214565 -4.54805635 -0.17835515 0 0 Z " fill="#618F71" transform="translate(428,608)"/>
<path d="M0 0 C3.95820859 0.56545837 6.6659053 1.80902348 10 4 C7.33438378 4.98726527 6.09873015 5.0275526 3.3125 4.25 C1 3 1 3 0 0 Z " fill="#8AAA8B" transform="translate(997,472)"/>
<path d="M0 0 C0.66 0 1.32 0 2 0 C2.14285714 8.57142857 2.14285714 8.57142857 1 12 C0.34 11.67 -0.32 11.34 -1 11 C-0.814375 9.88625 -0.62875 8.7725 -0.4375 7.625 C0.31680657 4.17431139 0.31680657 4.17431139 -1 2 C-0.67 1.34 -0.34 0.68 0 0 Z " fill="#B4C9A8" transform="translate(669,553)"/>
<path d="M0 0 C3.82097239 0.53069061 6.06171403 1.49701566 9 4 C6.36 4 3.72 4 1 4 C0.67 2.68 0.34 1.36 0 0 Z " fill="#80A285" transform="translate(776,472)"/>
<path d="M0 0 C0.33 0 0.66 0 1 0 C2.42258812 3.82320557 3.24042276 6.91281305 3 11 C0 9 0 9 -0.75 7.1875 C-1.04654743 4.59271 -0.63034051 2.52136205 0 0 Z " fill="#669074" transform="translate(624,537)"/>
<path d="M0 0 C3.75 1.375 3.75 1.375 7 3 C7 3.66 7 4.32 7 5 C3.37 4.01 -0.26 3.02 -4 2 C-2.68 1.34 -1.36 0.68 0 0 Z " fill="#689277" transform="translate(988,487)"/>
<path d="M0 0 C0.66 0 1.32 0 2 0 C1.125 5.75 1.125 5.75 0 8 C-0.99 8 -1.98 8 -3 8 C-2.690625 7.236875 -2.38125 6.47375 -2.0625 5.6875 C-1.32106407 3.81210323 -0.63771783 1.91315348 0 0 Z " fill="#709779" transform="translate(472,467)"/>
<path d="M0 0 C0.66 0.33 1.32 0.66 2 1 C2.59355614 3.64860427 2.74209269 6.29197322 3 9 C2.01 8.67 1.02 8.34 0 8 C-1.22393475 5.04215769 -0.96516243 3.00272755 0 0 Z " fill="#98B699" transform="translate(552,461)"/>
<path d="M0 0 C0.66 0.33 1.32 0.66 2 1 C1.375 2.875 1.375 2.875 0 5 C-3.125 6.25 -3.125 6.25 -6 7 C-4.77065985 3.31197956 -3.06140622 2.27643027 0 0 Z " fill="#99B59A" transform="translate(396,609)"/>
<path d="M0 0 C0.66 0.33 1.32 0.66 2 1 C-0.36292656 3.52588702 -1.66462511 4.88820837 -5 6 C-5.66 5.34 -6.32 4.68 -7 4 C-1.7265625 0.77734375 -1.7265625 0.77734375 0 0 Z " fill="#7EA28A" transform="translate(486,556)"/>
<path d="M0 0 C0.99 0.66 1.98 1.32 3 2 C2.1875 3.9375 2.1875 3.9375 1 6 C0.01 6.33 -0.98 6.66 -2 7 C-1.125 1.125 -1.125 1.125 0 0 Z " fill="#95B394" transform="translate(311,458)"/>
<path d="M0 0 C0.66 0.33 1.32 0.66 2 1 C1.67 1.66 1.34 2.32 1 3 C0.34 3 -0.32 3 -1 3 C-1.33 3.99 -1.66 4.98 -2 6 C-2 5.34 -2 4.68 -2 4 C-3.32 3.67 -4.64 3.34 -6 3 C-4.03533587 1.93224776 -2.03144641 0.93446535 0 0 Z " fill="#789E7F" transform="translate(402,440)"/>
<path d="M0 0 C3.16115776 1.36983503 3.9927092 1.9890638 6 5 C6.125 7.6875 6.125 7.6875 6 10 C3 6.25 3 6.25 3 4 C2.34 4 1.68 4 1 4 C0.67 2.68 0.34 1.36 0 0 Z " fill="#96B292" transform="translate(527,438)"/>
<path d="M0 0 C0.66 0.33 1.32 0.66 2 1 C-0.35380297 4.92300495 -2.64464931 5.83857315 -7 7 C-6.34 6.01 -5.68 5.02 -5 4 C-4.34 4 -3.68 4 -3 4 C-3 3.34 -3 2.68 -3 2 C-2.01 1.34 -1.02 0.68 0 0 Z " fill="#789E80" transform="translate(360,397)"/>
<path d="M0 0 C0.33 0 0.66 0 1 0 C1 2.31 1 4.62 1 7 C-0.98 7.99 -0.98 7.99 -3 9 C-2.01 6.03 -1.02 3.06 0 0 Z " fill="#608D6E" transform="translate(389,633)"/>
<path d="M0 0 C3.3 0.33 6.6 0.66 10 1 C10 1.33 10 1.66 10 2 C4.06 2.495 4.06 2.495 -2 3 C-1.34 2.67 -0.68 2.34 0 2 C0 1.34 0 0.68 0 0 Z " fill="#96B495" transform="translate(451,602)"/>
<path d="M0 0 C1 2 1 2 0.25 4.5625 C-1 7 -1 7 -4 8 C-3.50168276 4.31245243 -2.89932357 2.39509338 0 0 Z " fill="#2E6545" transform="translate(848,480)"/>
<path d="M0 0 C0.66 0.33 1.32 0.66 2 1 C0.4198632 3.15473199 -1.10646634 5.10646634 -3 7 C-3.99 7 -4.98 7 -6 7 C-6 6.34 -6 5.68 -6 5 C-4.04072937 3.2856382 -2.04119788 1.61594832 0 0 Z " fill="#AEC5AB" transform="translate(497,608)"/>
<path d="M0 0 C2.72426311 2.35277269 3.8141763 4.62496331 5 8 C3.68 7.67 2.36 7.34 1 7 C0.67 4.69 0.34 2.38 0 0 Z " fill="#ABC3AC" transform="translate(957,534)"/>
<path d="M0 0 C0.66 0 1.32 0 2 0 C4.09230769 4.43076923 4.09230769 4.43076923 3.625 7.3125 C3.41875 7.869375 3.2125 8.42625 3 9 C0.23776722 6.23776722 0.42143709 3.79293383 0 0 Z " fill="#97B493" transform="translate(547,450)"/>
<path d="M0 0 C1.65 1.65 3.3 3.3 5 5 C4.67 5.66 4.34 6.32 4 7 C2 5.75 2 5.75 0 4 C0 2.68 0 1.36 0 0 Z " fill="#8EAC92" transform="translate(533,426)"/>
<path d="M0 0 C0 0.33 0 0.66 0 1 C-1.65 1 -3.3 1 -5 1 C-5 1.66 -5 2.32 -5 3 C-7.31 2.67 -9.62 2.34 -12 2 C-8.09971775 -0.60018816 -4.52565431 -0.15085514 0 0 Z " fill="#A1BC9E" transform="translate(416,377)"/>
</svg>
